<?xml version="1.0" encoding="iso-8859-1"?>
<!-- Uploaded to: SVG Repo, www.svgrepo.com, Generator: SVG Repo Mixer Tools -->
<svg fill="#ffffff" height="800px" width="800px" version="1.1" id="Layer_1" xmlns="http://www.w3.org/2000/svg" xmlns:xlink="http://www.w3.org/1999/xlink" 
	 viewBox="0 0 512 512" xml:space="preserve">
<g>
	<g>
		<path d="M502.357,380.464L317.588,60.434c-27.379-47.422-95.788-47.441-123.179,0L9.64,380.464
			C-17.735,427.878,16.443,487.14,71.23,487.14h369.539C495.515,487.14,529.752,427.91,502.357,380.464z M440.768,451.581H71.228
			c-27.37,0-44.492-29.612-30.794-53.338l184.768-320.03c13.688-23.707,47.893-23.722,61.59,0l184.768,320.03
			C485.247,421.945,468.164,451.581,440.768,451.581z"/>
	</g>
</g>
<g>
	<g>
		<path d="M369.072,294.46c-21.318-12.307-46.174-12.76-67.324-2.996c-1.094-2.253-2.352-4.414-3.754-6.467
			c18.792-13.242,31.102-35.092,31.102-59.776c0-9.819-7.96-17.779-17.779-17.779c-9.819,0-17.779,7.96-17.779,17.779
			c0,20.699-16.841,37.54-37.539,37.54c-20.699,0-37.539-16.841-37.539-37.54c0-9.819-7.96-17.779-17.779-17.779
			c-9.819,0-17.779,7.96-17.779,17.779c0,24.684,12.31,46.534,31.102,59.776c-1.402,2.053-2.66,4.214-3.754,6.467
			c-21.153-9.766-46.013-9.309-67.324,2.996c-8.503,4.909-11.417,15.783-6.507,24.287c4.909,8.503,15.783,11.418,24.287,6.507
			c8.685-5.014,18.801-6.345,28.485-3.75c32.061,8.591,38.036,52.038,9.055,68.771c-8.503,4.909-11.417,15.783-6.507,24.287
			c4.914,8.512,15.79,11.413,24.287,6.507c21.376-12.341,34.141-33.926,36.216-56.817c2.784,0.205,4.74,0.205,7.518,0
			c2.073,22.893,14.84,44.476,36.216,56.817c8.497,4.908,19.375,2.001,24.287-6.507c4.909-8.503,1.996-19.377-6.507-24.287
			c-17.925-10.35-24.09-33.354-13.74-51.281c10.375-17.968,33.31-24.116,51.279-13.74c8.503,4.911,19.377,1.996,24.287-6.507
			C380.488,310.243,377.575,299.369,369.072,294.46z M255.998,328.848c-8.417,0-15.264-6.847-15.264-15.264
			c0-8.417,6.847-15.264,15.264-15.264c8.417,0,15.264,6.847,15.264,15.264C271.262,322,264.415,328.848,255.998,328.848z"/>
	</g>
</g>
</svg>